<svg enable-background="new 0 0 140 140" height="512" viewBox="0 0 140 140" width="512" xmlns="http://www.w3.org/2000/svg"><circle cx="70" cy="70" fill="#fb7833" r="64"/><path d="m28.0050087 89.9627228c-.0269165.2663574.1497192.5410156.4762573.8066406l43.1883507 43.1884766c33.0946045-.8500977 59.9273071-26.807373 62.1616211-59.539917l-39.8883667-39.8883057c-.3766479-.4145508-.760498-.798584-1.1523438-1.1523438l-.1695557-.1696777-.0045166.0065918c-3.2457886-2.8457031-6.8694458-3.7341309-9.1595459-3.9995117l-4.631897-4.6318359-17.5300254.579956-3.0099487 4.3499756c-18.1300049 6.1600342-13.9100342 18.5300293-19.5 27.8601074-5.6000366 9.3299561-10.7900391 32.5499268-10.7900391 32.5499268h.0200195c-.0100097.0200195-.0100097.0300293-.0100097.039917z" opacity=".1"/><path d="m61.2931137 25.1625099 17.5342865-.576868 2.320488 4.5416145-22.896843.4293537z" fill="#b1b2b6"/><path d="m105.7666779 62.1973763c-2.4880753-9.3306999-9.9696274-25.2217255-9.9696274-25.2217255-5.4382324-8.5532208-14.6368485-7.7917004-14.6368485-7.7917004l-22.8497887.3808784c-18.1467476 6.1534405-13.9189796 18.5328121-19.5173988 27.863512s-10.7873287 32.4999124-10.7873287 32.4999124l12.6435413 1.6808777s.3122635-2.5819244 2.4181213-6.1317978c1.9159317-3.2297134 4.0105247-6.8912659 5.4290657-11.1415329 1.4032936-4.2045898 5.0183487-11.1016693 5.0183487-11.1016693 0 1.4514465 2.4882431 8.7086334 1.8662262 14.0996857-.6221046 5.391098-8.0866623 28.2745285-8.0866623 28.2745285s8.1822395 0 25.9185867 1.169014 23.3607025 0 23.3607025 0-2.4185104-6.6351242-3.4550934-13.062973c-1.0369263-6.4278107-6.8426285-14.3070602-5.1837692-20.1128464 1.6587677-5.805748 1.0367508-12.161087 1.0367508-12.161087s6.4669647 16.3857346 8.1257324 18.6256714c1.6587753 2.2398987 3.2748184 13.6233215 3.2748184 13.6233215l11.6359711-1.1498718c.0000001-.0000001-3.753105-21.0114976-6.2413481-30.3421975z" fill="#dbd8dd"/><path d="m78.8274002 24.5856419s-16.1591873 22.7080746-19.761158 30.3818378-4.8548317 24.5495873-4.8548317 24.5495873-2.5057182 16.7947693-3.4453621 26.0346069h4.6982231s3.7585793-25.0571823 4.0717926-28.1893311 1.5064125-17.6221886 7.2039413-26.4666557c6.5590134-10.181778 14.4078827-21.7684307 14.4078827-21.7684307z" fill="#ededed"/><path d="m61.2931137 25.1625099 8.4001312 14.3478661-2.7040634 5.7461319-8.7381363-15.6998978z" fill="#ededed"/><g fill="#344d5b"><path d="m52.309868 78.529381h38.114857v4.704112h-38.114857z"/><path d="m67.5595932 80.7008743c-.3146057.9838486.0473099 2.0767212.6526489 2.913681s1.4321823 1.4816055 2.193367 2.1798325c3.9563904 3.6291351 6.2417603 9.0119629 6.1048279 14.3789825.8489532.5228043 2.0366745-.0347595 2.5074997-.9136124s.4056778-1.9413605.2517853-2.9264374c-.9140701-5.8509674-4.5246887-11.0455399-9.1167297-14.7848587"/><path d="m66.8554153 82.0780792c-2.5019455.0773163-4.4532547 2.3349915-5.2406654 4.7110138-.7874947 2.3760147-.7395325 4.9384537-1.161293 7.4057541-.4218483 2.4673004-1.4955482 5.0561905-3.712162 6.2188339 1.4595566.6641693 3.2682838-.0032959 4.3171806-1.2162857 1.048893-1.213028 1.4703941-2.8460388 1.6607666-4.4382935.1903687-1.5922928.1835175-3.2119904.52705-4.7783966.8546219-3.89711 4.0249023-7.1921921 7.886055-8.1965103z"/><path d="m71.0460587 77.9875259-2.2698669-.860527c-.6101303-.2313461-1.298584-.0992584-1.7797546.3414536l-2.0944977 1.9180908c-.4294815.3933563-.6320801.9766464-.5385818 1.5515747l.1497803.9223557c.0902786.5554962.4453506 1.0322876.9517593 1.2778625l1.7423782.8448639c.4153442.2013855.8939133.2282715 1.3292007.0746307l1.9494019-.6880569c.5500336-.1941452.9649429-.652504 1.1035309-1.2189713l.5226288-2.1366959c.2074507-.8478088-.2498628-1.7171783-1.0659791-2.0265808z"/><path d="m105.9390488 91.3066559c-3.1720657.3024216-5.6669083 1.3530807-5.5721741 2.3466873.0947189.9935684 2.7431488 1.5538788 5.9152145 1.2514572 3.1722488-.3024445 5.8115997-1.4104919 5.7168732-2.4040604-.0947266-.9936141-2.8876648-1.4965209-6.0599136-1.1940841z"/><path d="m34.060955 88.7699661c3.1720657.3024216 6.670742 1.7888641 6.5760117 2.7824707-.0947227.9935684-3.7469902 1.1180954-6.9190559.8156738-3.1722488-.3024368-5.8115997-1.4104919-5.7168732-2.4040604.0947285-.9936065 2.8876667-1.4965209 6.0599174-1.1940841z"/></g></svg>